<svg id="Layer_1" fill="#12b8cd" enable-background="new 0 0 66 66" height="512" viewBox="0 0 66 66" width="512" xmlns="http://www.w3.org/2000/svg"><g><path d="m25.26 12.05c.54 0 .98-.44.98-.98s-.44-.98-.98-.98c-5.77 0-10.46 4.67-10.46 10.4 0 .54.44.98.98.98s.98-.44.98-.98c0-4.65 3.81-8.44 8.5-8.44z"/><path d="m33 26.82c-9.1 0-16.5 7.4-16.5 16.5s7.4 16.5 16.5 16.5 16.5-7.4 16.5-16.5-7.4-16.5-16.5-16.5zm0 31.04c-8.02 0-14.54-6.52-14.54-14.54s6.52-14.54 14.54-14.54 14.54 6.52 14.54 14.54-6.52 14.54-14.54 14.54z"/><path d="m27.97 44.5h-.84v-4.81c0-.25-.08-.45-.24-.62s-.37-.25-.63-.25h-.25c-.15 0-.29.03-.42.1-.13.06-.24.15-.32.26l-4 5.1c-.12.15-.18.33-.18.54v.11c0 .24.09.44.26.61.17.16.37.25.61.25h3.75v1.6c0 .2.07.36.2.5.14.14.3.2.5.2.19 0 .36-.07.5-.2s.21-.3.21-.5v-1.6h.84c.18 0 .33-.06.46-.18s.19-.28.19-.46-.06-.33-.19-.46c-.11-.13-.27-.19-.45-.19zm-2.25 0h-2.99l2.99-3.86z"/><path d="m32.9 38.76c-1.16 0-2.06.43-2.67 1.29-.6.84-.91 1.99-.91 3.41s.31 2.57.91 3.41c.61.85 1.51 1.29 2.67 1.29 1.15 0 2.05-.43 2.66-1.29.61-.84.92-1.99.92-3.41s-.31-2.57-.92-3.41c-.61-.86-1.51-1.29-2.66-1.29zm1.59 7.2c-.37.59-.89.87-1.59.87s-1.22-.28-1.59-.87c-.38-.6-.57-1.44-.57-2.5s.19-1.89.57-2.49c.37-.59.89-.87 1.59-.87s1.22.28 1.59.87c.38.6.57 1.43.57 2.49s-.19 1.9-.57 2.5z"/><path d="m43.13 39.69c0-.25-.08-.45-.24-.62s-.37-.25-.63-.25h-.26c-.15 0-.29.03-.42.1-.13.06-.24.15-.32.26l-4 5.1c-.12.15-.18.33-.18.54v.11c0 .24.09.44.26.61.17.16.37.25.61.25h3.75v1.6c0 .2.07.36.2.5.14.14.3.2.5.2.19 0 .36-.07.5-.2s.21-.3.21-.5v-1.6h.84c.18 0 .33-.06.46-.18s.19-.28.19-.46-.06-.33-.19-.46-.28-.19-.46-.19h-.84v-4.81zm-1.42 4.81h-2.99l2.99-3.86z"/><path d="m54.71 23.24c-.34-5.45-4.88-9.78-10.41-9.78-2.04 0-4.03.6-5.72 1.71-2.17-5.35-7.46-8.99-13.32-8.99-7.7 0-14.01 6.09-14.35 13.71-5.53 1.28-9.46 6.18-9.46 11.94 0 6.68 5.44 12.18 12.12 12.25h.01c.53 0 .97-.43.98-.97s-.43-.98-.97-.99c-5.61-.05-10.19-4.67-10.19-10.29 0-5.07 3.63-9.35 8.63-10.17.47-.08.82-.64.82-1.11 0-6.85 5.57-12.41 12.41-12.41 5.46 0 10.36 3.66 11.9 8.89.09.32.34.57.66.66s.66.02.91-.2c1.54-1.34 3.51-2.08 5.55-2.08 4.68 0 8.48 3.8 8.48 8.48l-.01.28c-.01.27.09.54.29.73.19.19.45.3.73.28.11 0 .22-.01.33-.01 4.68 0 8.48 3.8 8.48 8.48s-3.8 8.48-8.48 8.48h-1.69c-.54 0-.98.44-.98.98s.44.98.98.98h1.69c5.75 0 10.43-4.68 10.43-10.43.02-5.56-4.34-10.11-9.82-10.42z"/></g></svg>